<?xml version="1.0" encoding="utf-8"?>
<!-- Generator: Adobe Illustrator 16.0.0, SVG Export Plug-In . SVG Version: 6.00 Build 0)  -->
<!DOCTYPE svg PUBLIC "-//W3C//DTD SVG 1.1//EN" "http://www.w3.org/Graphics/SVG/1.1/DTD/svg11.dtd">
<svg version="1.1" id="Layer_1" xmlns="http://www.w3.org/2000/svg" xmlns:xlink="http://www.w3.org/1999/xlink" x="0px" y="0px"
	 width="512px" height="518px" viewBox="0 -3 512 518" enable-background="new 0 -3 512 518" xml:space="preserve">
<g>
	<g>
		<g>
			<path fill="#FFFFFF" d="M371.781,0H140.107c-18.926,0-34.401,15.363-34.401,34.289v443.42c0,19.037,15.475,34.4,34.401,34.289
				H371.78c19.037,0,34.399-15.363,34.513-34.289V34.289C406.293,15.363,390.818,0,371.781,0z M384.027,477.82
				c0,6.68-5.455,12.022-12.246,12.022H140.107c-6.68,0-12.135-5.344-12.135-12.022V211.524h256.055V477.82L384.027,477.82z
				 M384.027,189.258H127.973V34.289c0-6.68,5.456-12.023,12.135-12.023h231.673c6.68,0,12.136,5.344,12.246,12.023V189.258z"/>
			<path fill="#FFFFFF" d="M350.629,89.063c-6.123,0-11.133,5.01-11.133,11.133v44.532c0,6.124,5.01,11.133,11.133,11.133
				s11.133-5.01,11.133-11.133v-44.532C361.762,94.072,356.752,89.063,350.629,89.063z"/>
			<path fill="#FFFFFF" d="M350.629,311.72c6.123,0,11.133-5.01,11.133-11.134v-55.663c0-6.124-5.01-11.133-11.133-11.133
				s-11.133,5.01-11.133,11.133v55.663C339.496,306.71,344.506,311.72,350.629,311.72z"/>
		</g>
	</g>
</g>
</svg>
