<?xml version="1.0" encoding="iso-8859-1"?>
<!-- Generator: Adobe Illustrator 19.0.0, SVG Export Plug-In . SVG Version: 6.00 Build 0)  -->
<svg xmlns="http://www.w3.org/2000/svg" xmlns:xlink="http://www.w3.org/1999/xlink" version="1.1" id="Layer_1" x="0px" y="0px" viewBox="0 0 490.561 490.561" style="enable-background:new 0 0 490.561 490.561;" xml:space="preserve" width="512px" height="512px">
<g>
	<g>
		<g>
			<path d="M356.214,0H134.24c-18.133,0-32.96,14.72-32.96,32.853v424.853c0,18.24,14.827,32.96,32.96,32.853h221.973     c18.24,0,32.96-14.72,33.067-32.853V32.853C389.28,14.72,374.454,0,356.214,0z M367.947,457.813c0,6.4-5.227,11.52-11.733,11.52     H134.24c-6.4,0-11.627-5.12-11.627-11.52V202.667h245.333V457.813z M367.947,181.333H122.614V32.853     c0-6.4,5.227-11.52,11.627-11.52h221.973c6.4,0,11.627,5.12,11.733,11.52V181.333z" fill="#FFFFFF"/>
			<path d="M335.947,85.333c-5.867,0-10.667,4.8-10.667,10.667v42.667c0,5.867,4.8,10.667,10.667,10.667     c5.867,0,10.667-4.8,10.667-10.667V96C346.614,90.133,341.814,85.333,335.947,85.333z" fill="#FFFFFF"/>
			<path d="M335.947,298.667c5.867,0,10.667-4.8,10.667-10.667v-53.333c0-5.867-4.8-10.667-10.667-10.667     c-5.867,0-10.667,4.8-10.667,10.667V288C325.28,293.867,330.08,298.667,335.947,298.667z" fill="#FFFFFF"/>
		</g>
	</g>
</g>
<g>
</g>
<g>
</g>
<g>
</g>
<g>
</g>
<g>
</g>
<g>
</g>
<g>
</g>
<g>
</g>
<g>
</g>
<g>
</g>
<g>
</g>
<g>
</g>
<g>
</g>
<g>
</g>
<g>
</g>
</svg>
