<?xml version="1.0" encoding="utf-8"?>
<!-- Generator: Adobe Illustrator 16.0.0, SVG Export Plug-In . SVG Version: 6.00 Build 0)  -->
<!DOCTYPE svg PUBLIC "-//W3C//DTD SVG 1.1//EN" "http://www.w3.org/Graphics/SVG/1.1/DTD/svg11.dtd">
<svg version="1.1" id="Layer_1" xmlns="http://www.w3.org/2000/svg" xmlns:xlink="http://www.w3.org/1999/xlink" x="0px" y="0px"
	 width="512px" height="658.5px" viewBox="0 0 512 658.5" enable-background="new 0 0 512 658.5" xml:space="preserve">
<g>
	<g>
		<g>
			<path fill="#FFFFFF" d="M371.781,0H140.107c-18.926,0-34.401,15.363-34.401,34.289v443.42c0,19.037,15.475,34.4,34.401,34.289
				H371.78c19.037,0,34.4-15.363,34.513-34.289V34.289C406.293,15.363,390.818,0,371.781,0z M384.027,477.82
				c0,6.68-5.455,12.023-12.246,12.023H140.107c-6.68,0-12.135-5.344-12.135-12.023V211.524h256.055L384.027,477.82L384.027,477.82z
				 M384.027,189.258H127.973V34.289c0-6.68,5.456-12.023,12.135-12.023h231.673c6.68,0,12.136,5.344,12.246,12.023V189.258z"/>
			<path fill="#FFFFFF" d="M350.629,89.063c-6.123,0-11.133,5.01-11.133,11.133v44.532c0,6.124,5.01,11.133,11.133,11.133
				s11.133-5.01,11.133-11.133v-44.532C361.762,94.072,356.752,89.063,350.629,89.063z"/>
			<path fill="#FFFFFF" d="M350.629,311.72c6.123,0,11.133-5.01,11.133-11.134v-55.663c0-6.124-5.01-11.133-11.133-11.133
				s-11.133,5.01-11.133,11.133v55.663C339.496,306.71,344.506,311.72,350.629,311.72z"/>
		</g>
	</g>
</g>
<g>
	<path fill="#FFFFFF" d="M21.729,549.609l24.199,64.301l24.142-64.301H88.91V633.5h-14.52v-27.656l1.44-36.99L51.056,633.5H40.627
		l-24.718-64.589l1.44,36.933V633.5H2.83v-83.891H21.729z"/>
	<path fill="#FFFFFF" d="M126.592,613.449l12.676-42.291h14.923l-24.775,71.791c-3.803,10.486-10.256,15.729-19.359,15.729
		c-2.037,0-4.284-0.348-6.741-1.043v-10.884l2.65,0.173c3.534,0,6.194-0.644,7.98-1.929c1.786-1.286,3.198-3.445,4.235-6.478
		l2.017-5.354l-21.895-62.007h15.096L126.592,613.449z"/>
	<path fill="#FFFFFF" d="M241.308,597.95h-33.764v35.55h-14.577v-83.891h53.296v11.754h-38.719v24.948h33.764V597.95z"/>
	<path fill="#FFFFFF" d="M289.072,583.949c-1.844-0.307-3.745-0.461-5.704-0.461c-6.415,0-10.737,2.459-12.964,7.375V633.5h-14.001
		v-62.342h13.367l0.346,6.972c3.38-5.416,8.066-8.124,14.059-8.124c1.997,0,3.649,0.27,4.955,0.807L289.072,583.949z"/>
	<path fill="#FFFFFF" d="M297.945,554.968c0-2.15,0.682-3.937,2.045-5.358c1.363-1.421,3.313-2.132,5.849-2.132
		s4.494,0.711,5.877,2.132c1.383,1.422,2.074,3.208,2.074,5.358c0,2.113-0.691,3.87-2.074,5.272s-3.342,2.103-5.877,2.103
		s-4.485-0.7-5.849-2.103S297.945,557.081,297.945,554.968z M312.811,633.5H298.81v-62.342h14.001V633.5z"/>
	<path fill="#FFFFFF" d="M325.429,601.868c0-9.603,2.228-17.313,6.684-23.134c4.456-5.818,10.429-8.729,17.919-8.729
		c6.605,0,11.945,2.305,16.018,6.914V545h14.001v88.5h-12.676l-0.691-6.453c-4.187,5.07-9.776,7.605-16.767,7.605
		c-7.299,0-13.204-2.938-17.717-8.815C327.685,619.96,325.429,611.971,325.429,601.868z M339.43,603.078
		c0,6.338,1.219,11.284,3.658,14.836c2.439,3.554,5.906,5.33,10.4,5.33c5.723,0,9.91-2.554,12.561-7.663v-26.619
		c-2.574-4.993-6.723-7.49-12.445-7.49c-4.533,0-8.029,1.796-10.486,5.388C340.658,590.451,339.43,595.857,339.43,603.078z"/>
	<path fill="#FFFFFF" d="M392.207,601.868c0-9.68,2.275-17.409,6.828-23.19c4.551-5.781,10.592-8.672,18.12-8.672
		c7.106,0,12.694,2.478,16.767,7.433l0.634-6.28h12.618v60.44c0,8.182-2.545,14.635-7.635,19.359s-11.955,7.087-20.598,7.087
		c-4.572,0-9.037-0.951-13.396-2.852c-4.359-1.902-7.672-4.39-9.938-7.462l6.626-8.412c4.301,5.108,9.602,7.663,15.902,7.663
		c4.646,0,8.316-1.259,11.005-3.773c2.688-2.517,4.033-6.214,4.033-11.092v-4.206c-4.033,4.494-9.411,6.741-16.133,6.741
		c-7.298,0-13.262-2.899-17.89-8.7C394.521,620.152,392.207,612.124,392.207,601.868z M406.15,603.078
		c0,6.262,1.276,11.188,3.832,14.779c2.554,3.592,6.098,5.387,10.63,5.387c5.646,0,9.833-2.42,12.561-7.26v-27.426
		c-2.65-4.725-6.799-7.087-12.445-7.087c-4.609,0-8.191,1.825-10.745,5.474C407.427,590.595,406.15,595.973,406.15,603.078z"/>
	<path fill="#FFFFFF" d="M489.004,634.652c-8.873,0-16.066-2.795-21.578-8.383c-5.512-5.59-8.268-13.031-8.268-22.327v-1.729
		c0-6.223,1.2-11.782,3.602-16.681c2.399-4.896,5.77-8.709,10.111-11.437c4.34-2.727,9.18-4.091,14.52-4.091
		c8.488,0,15.047,2.708,19.677,8.124c4.628,5.416,6.942,13.079,6.942,22.989v5.646h-40.735c0.423,5.147,2.141,9.219,5.157,12.215
		c3.015,2.996,6.807,4.494,11.379,4.494c6.414,0,11.639-2.593,15.672-7.778l7.548,7.202c-2.497,3.727-5.829,6.617-9.996,8.672
		C498.865,633.624,494.189,634.652,489.004,634.652z M487.333,581.241c-3.841,0-6.942,1.345-9.306,4.033
		c-2.361,2.689-3.869,6.435-4.522,11.235h26.677v-1.037c-0.308-4.686-1.556-8.229-3.745-10.631
		C494.247,582.442,491.212,581.241,487.333,581.241z"/>
</g>
</svg>
