<?xml version="1.0" encoding="utf-8"?>
<!-- Generator: Adobe Illustrator 16.0.0, SVG Export Plug-In . SVG Version: 6.00 Build 0)  -->
<!DOCTYPE svg PUBLIC "-//W3C//DTD SVG 1.1//EN" "http://www.w3.org/Graphics/SVG/1.1/DTD/svg11.dtd">
<svg version="1.1" id="Capa_1" xmlns="http://www.w3.org/2000/svg" xmlns:xlink="http://www.w3.org/1999/xlink" x="0px" y="0px"
	 width="512px" height="518px" viewBox="0 -2 512 518" enable-background="new 0 -2 512 518" xml:space="preserve">
<g>
	<g>
		<path fill="#FFFFFF" d="M84.196,66.824c-5.039-5.039-13.123-5.039-18.162-0.105c-5.145,5.039-5.145,13.123-0.105,18.162
			l30.655,30.865c2.415,2.415,5.669,3.779,9.133,3.779l0,0c3.359,0,6.614-1.365,9.029-3.779l93.329-92.805
			c5.04-5.039,5.04-13.123,0.105-18.162c-5.04-5.039-13.123-5.039-18.162,0l-28.24,28.03
			c-15.013-15.537-35.904-24.461-57.846-24.461c-44.408,0-80.521,36.114-80.521,80.522c0,44.407,36.114,80.521,80.521,80.521
			c35.799,0,66.769-22.991,77.162-57.215c2.1-6.824-1.785-13.963-8.608-16.063c-6.824-1.995-13.963,1.785-16.063,8.608
			c-6.929,22.886-28.555,38.949-52.491,38.949c-30.235,0-54.801-24.566-54.801-54.801c0-30.235,24.566-54.801,54.801-54.801
			c15.013,0,29.29,6.299,39.579,17.007l-37.689,37.479L84.196,66.824z"/>
		<path fill="#FFFFFF" d="M103.933,180.1c-44.408,0-80.521,36.114-80.521,80.522c0,44.407,36.114,80.521,80.521,80.521
			c44.407,0,80.522-36.114,80.522-80.521C184.455,216.214,148.34,180.1,103.933,180.1z M103.933,315.423
			c-30.235,0-54.801-24.565-54.801-54.801c0-30.236,24.566-54.801,54.801-54.801s54.801,24.566,54.801,54.801
			S134.168,315.423,103.933,315.423z"/>
		<path fill="#FFFFFF" d="M184.455,432.479c0-44.408-36.114-80.521-80.522-80.521c-44.408,0-80.521,36.112-80.521,80.521
			c0,44.407,36.114,80.521,80.521,80.521C148.34,513,184.455,476.886,184.455,432.479z M103.933,487.384
			c-30.235,0-54.801-24.564-54.801-54.801c0-30.234,24.566-54.801,54.801-54.801s54.801,24.565,54.801,54.801
			C158.733,462.818,134.168,487.384,103.933,487.384z"/>
		<path fill="#FFFFFF" d="M475.676,247.709H225.502c-7.139,0-12.913,5.774-12.913,12.913c0,7.139,5.774,12.913,12.913,12.913
			h250.173c7.14,0,12.913-5.774,12.913-12.913C488.589,253.483,482.814,247.709,475.676,247.709z"/>
		<path fill="#FFFFFF" d="M475.676,76.063H225.502c-7.139,0-12.913,5.774-12.913,12.913s5.774,12.913,12.913,12.913h250.173
			c7.14,0,12.913-5.774,12.913-12.913C488.589,81.836,482.814,76.063,475.676,76.063z"/>
		<path fill="#FFFFFF" d="M475.676,419.671H225.502c-7.139,0-12.913,5.773-12.913,12.912s5.774,12.913,12.913,12.913h250.173
			c7.14,0,12.913-5.774,12.913-12.913C488.589,425.34,482.814,419.671,475.676,419.671z"/>
	</g>
</g>
</svg>
