<?xml version="1.0" encoding="utf-8"?>
<!-- Generator: Adobe Illustrator 16.0.0, SVG Export Plug-In . SVG Version: 6.00 Build 0)  -->
<!DOCTYPE svg PUBLIC "-//W3C//DTD SVG 1.1//EN" "http://www.w3.org/Graphics/SVG/1.1/DTD/svg11.dtd">
<svg version="1.1" id="Capa_1" xmlns="http://www.w3.org/2000/svg" xmlns:xlink="http://www.w3.org/1999/xlink" x="0px" y="0px"
	 width="635px" height="687px" viewBox="-61.5 -4.5 635 687" enable-background="new -61.5 -4.5 635 687" xml:space="preserve">
<g>
	<g>
		<path fill="#FFFFFF" d="M84.196,65.824c-5.039-5.039-13.123-5.039-18.162-0.105c-5.145,5.039-5.145,13.123-0.105,18.162
			l30.655,30.865c2.415,2.415,5.669,3.779,9.133,3.779l0,0c3.359,0,6.614-1.365,9.029-3.779l93.329-92.805
			c5.04-5.039,5.04-13.123,0.105-18.162c-5.04-5.039-13.123-5.039-18.162,0l-28.24,28.03
			c-15.013-15.537-35.904-24.461-57.846-24.461c-44.408,0-80.521,36.114-80.521,80.522c0,44.407,36.114,80.521,80.521,80.521
			c35.799,0,66.769-22.991,77.162-57.215c2.1-6.824-1.785-13.963-8.608-16.063c-6.824-1.995-13.963,1.785-16.063,8.608
			c-6.929,22.886-28.555,38.949-52.491,38.949c-30.235,0-54.801-24.566-54.801-54.801c0-30.235,24.566-54.801,54.801-54.801
			c15.013,0,29.29,6.299,39.579,17.007l-37.689,37.479L84.196,65.824z"/>
		<path fill="#FFFFFF" d="M103.933,179.1c-44.408,0-80.521,36.114-80.521,80.522c0,44.407,36.114,80.521,80.521,80.521
			s80.522-36.114,80.522-80.521C184.455,215.214,148.34,179.1,103.933,179.1z M103.933,314.423
			c-30.235,0-54.801-24.565-54.801-54.801s24.566-54.801,54.801-54.801c30.235,0,54.801,24.566,54.801,54.801
			S134.168,314.423,103.933,314.423z"/>
		<path fill="#FFFFFF" d="M184.455,431.479c0-44.408-36.114-80.521-80.522-80.521s-80.521,36.113-80.521,80.521
			c0,44.407,36.114,80.521,80.521,80.521S184.455,475.886,184.455,431.479z M103.933,486.384c-30.235,0-54.801-24.565-54.801-54.801
			c0-30.234,24.566-54.801,54.801-54.801c30.235,0,54.801,24.566,54.801,54.801C158.733,461.818,134.168,486.384,103.933,486.384z"
			/>
		<path fill="#FFFFFF" d="M475.676,246.709H225.502c-7.139,0-12.913,5.774-12.913,12.913c0,7.139,5.774,12.913,12.913,12.913
			h250.173c7.139,0,12.913-5.774,12.913-12.913C488.589,252.483,482.814,246.709,475.676,246.709z"/>
		<path fill="#FFFFFF" d="M475.676,75.063H225.502c-7.139,0-12.913,5.774-12.913,12.913c0,7.139,5.774,12.913,12.913,12.913h250.173
			c7.139,0,12.913-5.774,12.913-12.913C488.589,80.836,482.814,75.063,475.676,75.063z"/>
		<path fill="#FFFFFF" d="M475.676,418.671H225.502c-7.139,0-12.913,5.773-12.913,12.912s5.774,12.913,12.913,12.913h250.173
			c7.139,0,12.913-5.774,12.913-12.913C488.589,424.34,482.814,418.671,475.676,418.671z"/>
	</g>
</g>
<g>
	<path fill="#FFFFFF" d="M10.579,646.61c-3.035,3.957-7.241,6.953-12.618,8.988c-5.378,2.035-11.486,3.054-18.322,3.054
		c-7.029,0-13.252-1.594-18.668-4.782c-5.416-3.188-9.593-7.749-12.532-13.685c-2.938-5.934-4.465-12.857-4.581-20.771v-6.568
		c0-12.676,3.034-22.576,9.104-29.702c6.069-7.124,14.539-10.688,25.409-10.688c9.334,0,16.747,2.314,22.24,6.943
		c5.493,4.629,8.795,11.283,9.91,19.964H-3.768c-1.613-10.102-7.471-15.153-17.573-15.153c-6.531,0-11.495,2.351-14.894,7.052
		s-5.157,11.6-5.272,20.694v6.447c0,9.057,1.91,16.089,5.733,21.098c3.822,5.008,9.132,7.512,15.931,7.512
		c7.452,0,12.752-1.689,15.902-5.07v-16.421h-17.285V614.46h31.805V646.61z"/>
	<path fill="#FFFFFF" d="M57.882,607.949c-1.844-0.307-3.745-0.461-5.704-0.461c-6.416,0-10.737,2.459-12.964,7.375V657.5H25.213
		v-62.342h13.367l0.346,6.972c3.379-5.416,8.066-8.124,14.059-8.124c1.997,0,3.649,0.27,4.955,0.807L57.882,607.949z"/>
	<path fill="#FFFFFF" d="M64.105,625.753c0-6.107,1.21-11.61,3.63-16.507c2.42-4.898,5.819-8.662,10.198-11.293
		s9.411-3.947,15.096-3.947c8.412,0,15.24,2.708,20.483,8.124s8.075,12.6,8.499,21.549l0.058,3.284
		c0,6.146-1.181,11.639-3.543,16.479s-5.743,8.585-10.141,11.235c-4.399,2.65-9.478,3.976-15.24,3.976
		c-8.796,0-15.836-2.929-21.117-8.787c-5.282-5.856-7.922-13.664-7.922-23.421V625.753z M78.106,626.963
		c0,6.415,1.325,11.438,3.976,15.066c2.65,3.631,6.338,5.445,11.063,5.445s8.402-1.844,11.034-5.531
		c2.63-3.688,3.947-9.084,3.947-16.19c0-6.299-1.354-11.293-4.062-14.98s-6.387-5.531-11.034-5.531
		c-4.572,0-8.202,1.815-10.89,5.444C79.45,614.316,78.106,619.742,78.106,626.963z"/>
	<path fill="#FFFFFF" d="M159.519,647.475c3.495,0,6.396-1.018,8.7-3.054c2.305-2.035,3.534-4.552,3.688-7.548h13.194
		c-0.154,3.88-1.364,7.5-3.63,10.861c-2.267,3.361-5.339,6.021-9.219,7.979c-3.88,1.959-8.066,2.938-12.561,2.938
		c-8.72,0-15.634-2.823-20.742-8.47c-5.109-5.646-7.663-13.443-7.663-23.393v-1.44c0-9.487,2.535-17.084,7.605-22.787
		c5.07-5.705,11.984-8.557,20.742-8.557c7.413,0,13.454,2.16,18.121,6.482c4.667,4.32,7.116,9.996,7.346,17.025h-13.194
		c-0.154-3.572-1.374-6.511-3.659-8.815c-2.286-2.305-5.195-3.457-8.729-3.457c-4.533,0-8.029,1.642-10.486,4.927
		c-2.458,3.283-3.708,8.268-3.745,14.951v2.247c0,6.761,1.219,11.803,3.659,15.124C151.385,645.813,154.91,647.475,159.519,647.475z
		"/>
	<path fill="#FFFFFF" d="M223.128,658.652c-8.873,0-16.066-2.795-21.578-8.383c-5.512-5.59-8.268-13.031-8.268-22.327v-1.729
		c0-6.223,1.2-11.782,3.601-16.681c2.4-4.896,5.771-8.709,10.112-11.437c4.34-2.727,9.18-4.091,14.52-4.091
		c8.489,0,15.047,2.708,19.676,8.124c4.628,5.416,6.943,13.079,6.943,22.989v5.646h-40.735c0.422,5.147,2.141,9.219,5.157,12.215
		c3.015,2.996,6.808,4.494,11.379,4.494c6.415,0,11.639-2.593,15.672-7.778l7.548,7.202c-2.498,3.727-5.829,6.617-9.997,8.672
		C232.99,657.624,228.314,658.652,223.128,658.652z M221.458,605.241c-3.841,0-6.943,1.345-9.305,4.033
		c-2.362,2.689-3.87,6.435-4.523,11.235h26.677v-1.037c-0.308-4.686-1.556-8.229-3.745-10.631
		C228.372,606.442,225.337,605.241,221.458,605.241z"/>
	<path fill="#FFFFFF" d="M291.635,607.949c-1.844-0.307-3.744-0.461-5.703-0.461c-6.416,0-10.737,2.459-12.965,7.375V657.5h-14
		v-62.342h13.367l0.346,6.972c3.379-5.416,8.066-8.124,14.059-8.124c1.996,0,3.648,0.27,4.955,0.807L291.635,607.949z"/>
	<path fill="#FFFFFF" d="M322.287,637.449l12.676-42.291h14.924l-24.775,71.791c-3.803,10.486-10.256,15.729-19.359,15.729
		c-2.037,0-4.284-0.348-6.742-1.043v-10.884l2.65,0.173c3.534,0,6.194-0.644,7.98-1.929c1.786-1.286,3.197-3.445,4.234-6.478
		l2.018-5.354l-21.895-62.007h15.096L322.287,637.449z"/>
	<path fill="#FFFFFF" d="M403.24,645.861h38.084V657.5h-52.662v-83.891h14.578V645.861z"/>
	<path fill="#FFFFFF" d="M451.178,578.968c0-2.15,0.682-3.937,2.045-5.358c1.363-1.421,3.313-2.132,5.848-2.132
		s4.494,0.711,5.877,2.132c1.383,1.422,2.074,3.208,2.074,5.358c0,2.113-0.691,3.87-2.074,5.272s-3.342,2.103-5.877,2.103
		s-4.484-0.7-5.848-2.103S451.178,581.081,451.178,578.968z M466.043,657.5h-14.002v-62.342h14.002V657.5z"/>
	<path fill="#FFFFFF" d="M516.227,640.561c0-2.496-1.027-4.397-3.082-5.704c-2.055-1.306-5.465-2.458-10.227-3.457
		c-4.764-0.998-8.74-2.266-11.928-3.803c-6.991-3.38-10.486-8.277-10.486-14.692c0-5.377,2.267-9.871,6.799-13.482
		c4.533-3.61,10.295-5.416,17.285-5.416c7.451,0,13.473,1.844,18.064,5.531c4.588,3.688,6.885,8.47,6.885,14.347h-14.002
		c0-2.688-0.998-4.927-2.996-6.712c-1.998-1.787-4.648-2.68-7.951-2.68c-3.072,0-5.58,0.711-7.518,2.132
		c-1.941,1.422-2.91,3.323-2.91,5.704c0,2.151,0.902,3.822,2.707,5.013c1.805,1.191,5.455,2.392,10.947,3.601
		c5.492,1.211,9.805,2.65,12.936,4.322c3.131,1.67,5.453,3.678,6.973,6.021c1.516,2.344,2.275,5.186,2.275,8.527
		c0,5.608-2.324,10.15-6.973,13.626c-4.648,3.478-10.736,5.215-18.264,5.215c-5.109,0-9.662-0.922-13.656-2.766
		s-7.106-4.379-9.334-7.605s-3.342-6.702-3.342-10.429h13.598c0.191,3.304,1.441,5.849,3.746,7.634
		c2.305,1.787,5.357,2.68,9.16,2.68c3.688,0,6.492-0.7,8.412-2.104C515.266,644.661,516.227,642.827,516.227,640.561z"/>
	<path fill="#FFFFFF" d="M559.728,580.005v15.153h11.005v10.371h-11.005v34.801c0,2.382,0.47,4.101,1.411,5.156
		c0.941,1.058,2.622,1.585,5.042,1.585c1.613,0,3.245-0.191,4.897-0.576v10.832c-3.188,0.883-6.262,1.325-9.219,1.325
		c-10.756,0-16.133-5.935-16.133-17.804v-35.319h-10.256v-10.371h10.256v-15.153H559.728z"/>
</g>
</svg>
