<?xml version="1.0" encoding="utf-8"?>
<!-- Generator: Adobe Illustrator 16.0.0, SVG Export Plug-In . SVG Version: 6.00 Build 0)  -->
<!DOCTYPE svg PUBLIC "-//W3C//DTD SVG 1.1//EN" "http://www.w3.org/Graphics/SVG/1.1/DTD/svg11.dtd">
<svg version="1.1" id="Capa_1" xmlns="http://www.w3.org/2000/svg" xmlns:xlink="http://www.w3.org/1999/xlink" x="0px" y="0px"
	 width="512.003px" height="406px" viewBox="0 0 512.003 406" enable-background="new 0 0 512.003 406" xml:space="preserve">
<path fill="#FFFFFF" d="M477.008,388.459h-5.641c-11.086,0-20.107-9.021-20.107-20.105V32.964c0-0.63,0.262-15.423,22.928-15.423
	c26.395,0,37.814,76.726,37.814,115.864c0,47.048-12.533,90.306-14.887,97.999v136.947
	C497.114,379.439,488.096,388.459,477.008,388.459z M466.325,237.797v130.559c0,2.777,2.262,5.039,5.043,5.039h5.641
	c2.779,0,5.045-2.258,5.045-5.039V237.797H466.325z M466.325,222.732h17.615c3.736-13.387,12.998-50.499,12.998-89.325
	c0-52.461-15.225-97.757-22.949-100.8c-4.66,0.028-6.92,0.954-7.664,1.486V222.732L466.325,222.732z M43.01,388.459
	c-7.645,0-14.757-2.586-19.025-6.916c-2.86-2.902-4.404-6.557-4.349-10.287l3.041-206.436c-13.198-7.17-22.344-21.053-22.673-36.976
	c-0.005-0.155-0.005-0.316,0-0.479c0,0,0,0,0-0.002c0-0.005,0-0.01,0-0.018c0-0.002,0-0.005,0-0.01c0-0.002,0-0.007,0-0.01
	c0-0.005,0-0.01,0-0.015c0-0.002,0-0.005,0-0.007c0-0.008,0-0.013,0-0.02c0,0,0,0,0-0.002l4.306-94.66
	c0.188-4.155,3.736-7.343,7.866-7.18c4.155,0.188,7.371,3.713,7.183,7.868l-3.944,86.786h8.408l1.986-87.298
	c0.095-4.158,3.59-7.492,7.7-7.358c4.158,0.093,7.454,3.542,7.358,7.7l-1.978,86.957h8.245L45.155,33.14
	c-0.095-4.157,3.199-7.607,7.359-7.7c4.165-0.211,7.607,3.198,7.7,7.358l1.986,87.298h8.408l-3.947-86.784
	c-0.188-4.155,3.028-7.68,7.183-7.868c4.15-0.206,7.677,3.025,7.866,7.18l4.306,94.659c0,0.005,0,0.008,0,0.013l0,0
	c0.007,0.186,0.01,0.369,0.005,0.555c-0.329,15.922-9.475,29.803-22.673,36.976l3.041,206.435c0.055,3.73-1.489,7.381-4.349,10.287
	C57.768,385.873,50.655,388.459,43.01,388.459z M34.703,370.967c0.755,0.789,3.575,2.428,8.307,2.428
	c4.733,0,7.552-1.637,8.308-2.428l-2.96-200.969H37.666L34.703,370.967z M16.295,135.158c3.54,11.413,14.248,19.777,26.715,19.777
	c12.468,0,23.173-8.365,26.715-19.777H54.853c-0.01,0-0.02,0-0.035,0H31.206c-0.015-0.002-0.025-0.002-0.038,0H16.295z
	 M259.297,363.572c-92.813,0-168.319-75.51-168.319-168.324c0-92.812,75.508-168.32,168.319-168.32
	c92.813,0,168.32,75.508,168.32,168.32C427.618,288.064,352.11,363.572,259.297,363.572z M259.297,41.993
	c-84.505,0-153.255,68.75-153.255,153.256c0,84.507,68.75,153.259,153.255,153.259c84.508,0,153.258-68.752,153.258-153.259
	C412.555,110.743,343.805,41.993,259.297,41.993z M259.297,318.123c-67.75,0-122.87-55.121-122.87-122.872
	c0-67.751,55.12-122.871,122.87-122.871c67.752,0,122.871,55.12,122.871,122.871C382.168,263.002,327.049,318.123,259.297,318.123z
	 M259.297,87.441c-59.445,0-107.806,48.364-107.806,107.807s48.364,107.808,107.806,107.808
	c59.443,0,107.809-48.363,107.809-107.808C367.106,135.806,318.741,87.441,259.297,87.441z"/>
</svg>
