<?xml version="1.0" encoding="iso-8859-1"?>
<!-- Generator: Adobe Illustrator 17.1.0, SVG Export Plug-In . SVG Version: 6.00 Build 0)  -->
<!DOCTYPE svg PUBLIC "-//W3C//DTD SVG 1.1//EN" "http://www.w3.org/Graphics/SVG/1.1/DTD/svg11.dtd">
<svg xmlns="http://www.w3.org/2000/svg" xmlns:xlink="http://www.w3.org/1999/xlink" version="1.1" id="Capa_1" x="0px" y="0px" viewBox="0 0 203.936 203.936" style="enable-background:new 0 0 203.936 203.936;" xml:space="preserve" width="512px" height="512px">
<path d="M189.999,175.838h-2.247c-4.416,0-8.009-3.593-8.009-8.008V34.24c0-0.251,0.104-6.143,9.132-6.143  c10.514,0,15.062,30.561,15.062,46.15c0,18.74-4.992,35.97-5.929,39.034v54.548C198.007,172.245,194.415,175.838,189.999,175.838z   M185.743,115.827v52.003c0,1.107,0.901,2.008,2.009,2.008h2.247c1.107,0,2.009-0.9,2.009-2.008v-52.003H185.743z M185.743,109.827  h7.017c1.488-5.331,5.177-20.113,5.177-35.579c0-20.896-6.064-38.938-9.141-40.15c-1.856,0.011-2.756,0.38-3.053,0.592V109.827z   M17.132,175.838c-3.045,0-5.878-1.03-7.578-2.755c-1.139-1.156-1.754-2.611-1.732-4.097l1.211-82.226  c-5.257-2.856-8.9-8.386-9.031-14.728C0,71.97,0,71.906,0.002,71.841c0,0,0,0,0-0.001c0-0.002,0-0.004,0-0.007  c0-0.001,0-0.002,0-0.004c0-0.001,0-0.003,0-0.004c0-0.002,0-0.004,0-0.006c0-0.001,0-0.002,0-0.003c0-0.003,0-0.005,0-0.008  c0,0,0,0,0-0.001l1.715-37.704c0.075-1.655,1.488-2.925,3.133-2.86c1.655,0.075,2.936,1.479,2.861,3.134L6.14,68.945h3.349  l0.791-34.772c0.038-1.656,1.43-2.984,3.067-2.931c1.656,0.037,2.969,1.411,2.931,3.067L15.49,68.945h3.284l-0.788-34.636  c-0.038-1.656,1.274-3.03,2.931-3.067c1.659-0.084,3.03,1.274,3.067,2.931l0.791,34.772h3.349l-1.572-34.567  c-0.075-1.655,1.206-3.059,2.861-3.134c1.653-0.082,3.058,1.205,3.133,2.86l1.715,37.704c0,0.002,0,0.003,0,0.005l0,0  c0.003,0.074,0.004,0.147,0.002,0.221c-0.131,6.342-3.774,11.871-9.031,14.728l1.211,82.226c0.022,1.485-0.593,2.94-1.732,4.097  C23.01,174.808,20.177,175.838,17.132,175.838z M13.823,168.871c0.301,0.314,1.424,0.967,3.309,0.967s3.008-0.652,3.309-0.967  l-1.179-80.049h-4.259L13.823,168.871z M6.491,74.945c1.41,4.546,5.675,7.878,10.641,7.878s9.23-3.332,10.641-7.878h-5.924  c-0.004,0-0.008,0-0.014,0H12.43c-0.006-0.001-0.01-0.001-0.015,0H6.491z M103.282,165.925c-36.968,0-67.044-30.076-67.044-67.045  c0-36.968,30.076-67.044,67.044-67.044c36.968,0,67.044,30.076,67.044,67.044C170.326,135.849,140.25,165.925,103.282,165.925z   M103.282,37.836c-33.66,0-61.044,27.384-61.044,61.044s27.384,61.045,61.044,61.045s61.044-27.385,61.044-61.045  S136.942,37.836,103.282,37.836z M103.282,147.822c-26.986,0-48.941-21.955-48.941-48.941s21.955-48.941,48.941-48.941  s48.941,21.955,48.941,48.941S130.268,147.822,103.282,147.822z M103.282,55.939c-23.678,0-42.941,19.264-42.941,42.941  s19.264,42.941,42.941,42.941s42.941-19.264,42.941-42.941S126.959,55.939,103.282,55.939z" fill="#FFFFFF"/>
<g>
</g>
<g>
</g>
<g>
</g>
<g>
</g>
<g>
</g>
<g>
</g>
<g>
</g>
<g>
</g>
<g>
</g>
<g>
</g>
<g>
</g>
<g>
</g>
<g>
</g>
<g>
</g>
<g>
</g>
</svg>
