<?xml version="1.0" encoding="utf-8"?>
<!-- Generator: Adobe Illustrator 16.0.0, SVG Export Plug-In . SVG Version: 6.00 Build 0)  -->
<!DOCTYPE svg PUBLIC "-//W3C//DTD SVG 1.1//EN" "http://www.w3.org/Graphics/SVG/1.1/DTD/svg11.dtd">
<svg version="1.1" id="Capa_1" xmlns="http://www.w3.org/2000/svg" xmlns:xlink="http://www.w3.org/1999/xlink" x="0px" y="0px"
	 width="512.003px" height="518px" viewBox="0 59.5 512.003 518" enable-background="new 0 59.5 512.003 518" xml:space="preserve">
<path fill="#FFFFFF" d="M477.01,443.457h-5.642c-11.086,0-20.106-9.021-20.106-20.104V87.963c0-0.63,0.261-15.423,22.926-15.423
	c26.396,0,37.815,76.726,37.815,115.864c0,47.048-12.533,90.306-14.886,97.999V423.35
	C497.114,434.437,488.097,443.457,477.01,443.457z M466.325,292.795v130.558c0,2.779,2.262,5.041,5.043,5.041h5.642
	c2.779,0,5.044-2.259,5.044-5.041V292.795H466.325z M466.325,277.73h17.616c3.736-13.384,12.997-50.495,12.997-89.324
	c0-52.461-15.224-97.757-22.949-100.8c-4.659,0.028-6.919,0.954-7.664,1.486V277.73z M43.011,443.457
	c-7.645,0-14.757-2.586-19.025-6.916c-2.86-2.902-4.404-6.556-4.349-10.286l3.041-206.436c-13.198-7.17-22.344-21.054-22.673-36.976
	c-0.005-0.155-0.005-0.316,0-0.479c0,0,0,0,0-0.002c0-0.005,0-0.01,0-0.018c0-0.002,0-0.005,0-0.01c0-0.002,0-0.007,0-0.01
	c0-0.005,0-0.01,0-0.015c0-0.002,0-0.005,0-0.007c0-0.008,0-0.013,0-0.02c0,0,0,0,0-0.002l4.306-94.66
	c0.188-4.155,3.736-7.343,7.866-7.18c4.155,0.188,7.371,3.713,7.183,7.868l-3.944,86.786h8.408l1.986-87.298
	c0.095-4.158,3.59-7.492,7.7-7.358c4.158,0.093,7.454,3.542,7.358,7.7l-1.978,86.957h8.245l-1.979-86.957
	c-0.095-4.157,3.199-7.607,7.359-7.7c4.165-0.211,7.607,3.198,7.7,7.358l1.986,87.298h8.408l-3.947-86.784
	c-0.188-4.155,3.028-7.68,7.183-7.868c4.15-0.206,7.677,3.025,7.866,7.18l4.306,94.659c0,0.005,0,0.008,0,0.013l0,0
	c0.007,0.186,0.01,0.369,0.005,0.555c-0.329,15.922-9.475,29.803-22.673,36.976l3.041,206.436c0.055,3.729-1.489,7.381-4.349,10.286
	C57.769,440.871,50.656,443.457,43.011,443.457z M34.704,425.966c0.755,0.789,3.575,2.428,8.307,2.428
	c4.733,0,7.552-1.637,8.308-2.428l-2.96-200.97H37.667L34.704,425.966z M16.296,190.156c3.54,11.413,14.248,19.778,26.715,19.778
	c12.468,0,23.173-8.365,26.715-19.778H54.854c-0.01,0-0.02,0-0.035,0H31.207c-0.015-0.002-0.025-0.002-0.038,0H16.296z
	 M259.299,418.57c-92.812,0-168.32-75.509-168.32-168.323c0-92.812,75.508-168.32,168.32-168.32s168.32,75.508,168.32,168.32
	C427.619,343.062,352.11,418.57,259.299,418.57z M259.299,96.991c-84.506,0-153.256,68.75-153.256,153.256
	c0,84.507,68.75,153.259,153.256,153.259c84.507,0,153.257-68.752,153.257-153.259C412.556,165.741,343.806,96.991,259.299,96.991z
	 M259.299,373.121c-67.751,0-122.871-55.121-122.871-122.871c0-67.751,55.12-122.871,122.871-122.871S382.17,182.499,382.17,250.25
	C382.17,318,327.05,373.121,259.299,373.121z M259.299,142.44c-59.446,0-107.807,48.364-107.807,107.807
	c0,59.443,48.364,107.808,107.807,107.808s107.808-48.364,107.808-107.808C367.106,190.804,318.742,142.44,259.299,142.44z"/>
<g>
	<path fill="#FFFFFF" d="M20.924,493.609l24.199,64.301l24.142-64.301h18.841V577.5h-14.52v-27.656l1.44-36.99L50.251,577.5H39.822
		l-24.718-64.589l1.44,36.933V577.5H2.025v-83.891H20.924z"/>
	<path fill="#FFFFFF" d="M131.434,578.652c-8.873,0-16.066-2.795-21.578-8.383c-5.512-5.59-8.268-13.031-8.268-22.327v-1.729
		c0-6.223,1.2-11.782,3.601-16.681c2.4-4.896,5.771-8.709,10.112-11.437c4.34-2.727,9.18-4.091,14.52-4.091
		c8.489,0,15.047,2.708,19.676,8.124c4.628,5.416,6.943,13.079,6.943,22.989v5.646h-40.735c0.422,5.147,2.141,9.219,5.157,12.215
		c3.015,2.996,6.808,4.494,11.379,4.494c6.415,0,11.639-2.593,15.672-7.778l7.548,7.202c-2.498,3.727-5.829,6.617-9.997,8.672
		C141.295,577.624,136.619,578.652,131.434,578.652z M129.763,525.241c-3.841,0-6.943,1.345-9.305,4.033
		c-2.362,2.689-3.87,6.435-4.523,11.235h26.677v-1.037c-0.308-4.686-1.556-8.229-3.745-10.631
		C136.677,526.442,133.642,525.241,129.763,525.241z"/>
	<path fill="#FFFFFF" d="M204.55,577.5c-0.615-1.19-1.152-3.13-1.613-5.819c-4.457,4.648-9.91,6.972-16.363,6.972
		c-6.261,0-11.371-1.786-15.326-5.358c-3.957-3.572-5.935-7.989-5.935-13.252c0-6.645,2.468-11.744,7.404-15.298
		c4.935-3.552,11.993-5.329,21.174-5.329h8.585v-4.091c0-3.227-0.903-5.81-2.708-7.75c-1.806-1.938-4.552-2.909-8.239-2.909
		c-3.189,0-5.8,0.798-7.836,2.392c-2.037,1.594-3.054,3.62-3.054,6.078h-14.001c0-3.418,1.132-6.616,3.399-9.594
		c2.266-2.976,5.349-5.31,9.248-7c3.898-1.689,8.248-2.535,13.05-2.535c7.297,0,13.117,1.835,17.458,5.502
		c4.34,3.669,6.568,8.826,6.684,15.471v28.117c0,5.608,0.787,10.083,2.362,13.425v0.979H204.55z M189.166,567.417
		c2.766,0,5.367-0.672,7.807-2.017c2.439-1.344,4.272-3.149,5.502-5.416V548.23h-7.548c-5.186,0-9.084,0.903-11.696,2.708
		c-2.613,1.806-3.918,4.36-3.918,7.663c0,2.689,0.893,4.831,2.679,6.424C183.779,566.62,186.17,567.417,189.166,567.417z"/>
	<path fill="#FFFFFF" d="M246.034,577.5h-14.001V489h14.001V577.5z"/>
	<path fill="#FFFFFF" d="M306.59,546.387V577.5h-14.577v-83.891h32.093c9.371,0,16.814,2.442,22.326,7.325
		c5.512,4.884,8.269,11.345,8.269,19.38c0,8.229-2.699,14.633-8.095,19.209c-5.397,4.576-12.955,6.863-22.673,6.863H306.59z
		 M306.59,534.633h17.516c5.186,0,9.141-1.219,11.869-3.658c2.727-2.439,4.091-5.964,4.091-10.573c0-4.532-1.383-8.153-4.148-10.86
		c-2.766-2.709-6.568-4.101-11.408-4.178H306.59V534.633z"/>
	<path fill="#FFFFFF" d="M380.974,577.5h-14.001V489h14.001V577.5z"/>
	<path fill="#FFFFFF" d="M433.463,577.5c-0.615-1.19-1.152-3.13-1.613-5.819c-4.457,4.648-9.91,6.972-16.363,6.972
		c-6.262,0-11.371-1.786-15.326-5.358c-3.957-3.572-5.935-7.989-5.935-13.252c0-6.645,2.468-11.744,7.403-15.298
		c4.936-3.552,11.994-5.329,21.175-5.329h8.585v-4.091c0-3.227-0.902-5.81-2.708-7.75c-1.806-1.938-4.552-2.909-8.239-2.909
		c-3.189,0-5.801,0.798-7.836,2.392c-2.037,1.594-3.054,3.62-3.054,6.078h-14.001c0-3.418,1.133-6.616,3.399-9.594
		c2.267-2.976,5.349-5.31,9.247-7c3.898-1.689,8.248-2.535,13.051-2.535c7.297,0,13.117,1.835,17.458,5.502
		c4.341,3.669,6.568,8.826,6.684,15.471v28.117c0,5.608,0.786,10.083,2.362,13.425v0.979H433.463z M418.079,567.417
		c2.766,0,5.367-0.672,7.808-2.017c2.438-1.344,4.271-3.149,5.502-5.416V548.23h-7.548c-5.186,0-9.085,0.903-11.696,2.708
		c-2.613,1.806-3.918,4.36-3.918,7.663c0,2.689,0.893,4.831,2.68,6.424C412.691,566.62,415.083,567.417,418.079,567.417z"/>
	<path fill="#FFFFFF" d="M473.046,515.158l0.403,7.202c4.609-5.569,10.659-8.354,18.149-8.354c12.982,0,19.59,7.433,19.82,22.298
		V577.5h-14.001v-40.39c0-3.956-0.855-6.886-2.563-8.786c-1.71-1.902-4.505-2.853-8.384-2.853c-5.646,0-9.853,2.555-12.618,7.663
		V577.5h-14.001v-62.342H473.046z"/>
</g>
</svg>
